<?xml version="1.0" standalone="no"?>
<!DOCTYPE svg PUBLIC "-//W3C//DTD SVG 20010904//EN"
 "http://www.w3.org/TR/2001/REC-SVG-20010904/DTD/svg10.dtd">
<svg version="1.0" xmlns="http://www.w3.org/2000/svg"
 width="413.000000pt" height="413.000000pt" viewBox="0 0 413.000000 413.000000"
 preserveAspectRatio="xMidYMid meet">
<metadata>
Created by potrace 1.11, written by Peter Selinger 2001-2013
</metadata>
<g transform="translate(0.000000,413.000000) scale(0.100000,-0.100000)"
fill="#000000" stroke="none">
<path d="M1700 3876 c-280 -96 -461 -292 -600 -649 -56 -144 -81 -375 -94
-884 -1 -24 -4 -43 -8 -43 -5 0 -8 -12 -8 -27 0 -35 -26 -104 -62 -166 -15
-26 -28 -50 -28 -52 0 -3 -19 -35 -42 -72 -57 -93 -113 -217 -128 -283 -20
-83 -15 -224 10 -290 11 -30 20 -65 20 -78 0 -13 7 -30 15 -38 8 -9 15 -19 15
-23 0 -12 -51 -38 -214 -105 -88 -37 -166 -72 -174 -78 -7 -6 -22 -28 -32 -49
-11 -20 -38 -58 -60 -84 -58 -67 -147 -253 -167 -350 -13 -67 -15 -119 -9
-315 3 -129 9 -247 12 -262 l6 -28 599 0 599 0 6 25 c5 20 9 23 20 14 8 -6 14
-18 14 -25 0 -8 10 -14 22 -14 20 0 20 1 5 18 -19 20 -22 32 -9 32 5 0 15 -11
22 -25 11 -20 21 -25 49 -24 20 0 30 3 23 6 -13 5 -37 51 -34 66 1 4 -2 7 -7
7 -11 0 -36 88 -27 97 3 3 6 -1 6 -10 0 -29 14 -18 45 34 34 57 82 109 69 74
-5 -11 -14 -31 -21 -45 -7 -14 -13 -35 -13 -47 0 -12 -4 -25 -10 -28 -5 -3
-10 -12 -10 -18 0 -7 7 -3 15 7 8 11 15 17 15 13 0 -10 50 48 84 98 16 22 26
36 24 30 -9 -23 -62 -124 -93 -180 -46 -80 -44 -98 5 -50 45 44 54 30 14 -22
l-25 -33 313 2 313 3 10 23 c5 12 17 25 26 27 10 3 25 22 34 41 9 19 23 38 31
41 21 8 17 23 -6 23 -38 0 -84 120 -50 132 11 3 12 27 7 166 -2 52 -8 96 -14
100 -6 4 -21 28 -34 54 -13 26 -43 69 -66 95 -61 69 -113 151 -106 168 3 8 1
15 -5 15 -11 0 -52 90 -52 114 0 8 -6 17 -12 19 -8 4 -4 8 9 12 12 4 25 15 28
25 3 10 13 20 22 22 14 3 12 8 -10 30 -15 15 -27 32 -27 38 0 5 -9 19 -21 31
-15 15 -18 24 -10 33 8 10 1 26 -29 63 -22 28 -50 58 -63 66 -27 18 -72 87
-56 87 5 0 2 11 -7 25 -8 13 -13 29 -9 35 14 23 171 2 207 -28 8 -6 30 -10 49
-8 48 6 108 -22 116 -54 7 -31 23 -51 34 -44 12 7 -2 -29 -15 -38 -15 -10 -36
-87 -24 -94 5 -3 19 -3 31 0 13 3 32 -2 45 -12 21 -16 23 -27 27 -132 5 -130
14 -181 34 -188 11 -4 13 6 7 49 -4 29 -10 58 -14 64 -18 24 0 163 29 238 12
29 34 38 25 10 -12 -40 -6 -260 10 -344 4 -21 0 -28 -15 -32 -18 -4 -21 -13
-21 -55 0 -38 5 -54 18 -64 10 -7 22 -26 26 -42 4 -17 23 -56 42 -89 19 -32
34 -62 34 -68 0 -5 4 -9 10 -9 6 0 5 -10 -2 -25 -6 -14 -15 -25 -20 -25 -4 0
-8 -9 -8 -20 0 -17 -7 -20 -40 -20 -38 0 -110 -27 -110 -41 0 -21 123 -14 169
10 11 6 33 11 49 11 24 0 35 -10 68 -57 21 -32 47 -66 58 -76 23 -24 40 -155
31 -244 l-6 -63 761 0 760 0 0 233 c0 232 0 234 -31 338 -39 131 -126 354
-189 484 -56 115 -125 197 -230 276 -38 28 -72 60 -75 70 -11 33 -234 128
-303 129 -18 0 -31 4 -28 8 2 4 1 14 -4 21 -6 11 -12 11 -31 -3 -30 -20 -73
-21 -93 0 -18 18 -21 75 -5 91 22 22 7 234 -21 298 -5 11 -17 54 -25 95 -25
115 -26 118 -67 235 -21 60 -46 121 -56 135 -18 25 -37 97 -72 285 -24 124
-42 191 -63 232 -10 18 -17 40 -17 50 0 18 -32 111 -63 184 -8 20 -37 74 -64
120 -28 46 -74 125 -103 174 -103 176 -231 319 -324 364 -50 25 -163 52 -211
50 -16 0 -55 9 -85 20 -79 29 -147 26 -260 -13z m-280 -440 c-7 -23 -16 -54
-21 -70 -5 -16 -9 -42 -9 -57 0 -16 -4 -29 -9 -29 -4 0 -6 -11 -3 -25 2 -13 1
-33 -4 -42 -10 -25 -11 -29 -13 -59 0 -14 -5 -22 -11 -19 -5 3 -10 -2 -11 -12
-1 -10 -5 -2 -10 17 -16 66 14 206 69 320 30 62 43 47 22 -24z m642 57 c10 -9
18 -25 18 -35 0 -11 11 -43 24 -71 13 -29 32 -72 42 -97 10 -25 28 -53 41 -63
13 -10 23 -27 23 -38 0 -10 5 -19 10 -19 5 0 9 -6 7 -12 -1 -7 4 -12 11 -10
23 4 12 -13 -15 -25 -39 -16 -133 -34 -144 -28 -5 4 -20 -5 -33 -20 -13 -14
-36 -30 -52 -35 l-29 -10 1 -158 c2 -149 3 -160 28 -206 35 -66 33 -88 -8
-120 -44 -33 -72 -33 -102 0 -20 21 -23 32 -18 67 4 23 11 50 16 60 19 37 19
98 -2 170 -11 41 -20 89 -20 108 0 33 -18 70 -52 102 -11 12 -34 17 -68 17
-49 0 -51 1 -45 23 12 39 48 97 61 97 6 0 19 17 28 38 9 20 21 44 26 52 5 8
21 40 36 72 28 61 63 99 121 134 46 27 71 29 95 7z m-749 -25 c-6 -7 -15 -26
-21 -43 -9 -26 -11 -27 -11 -7 -1 22 29 74 38 66 2 -2 -1 -9 -6 -16z m43 -41
c-13 -40 -26 -58 -26 -38 0 15 31 83 36 78 2 -1 -3 -19 -10 -40z m204 -143
c-23 -47 -43 -84 -46 -82 -2 3 15 49 38 104 24 55 44 91 46 81 2 -9 -15 -56
-38 -103z m-299 29 c-9 -16 -10 -16 -11 4 0 12 3 30 7 40 7 16 8 16 11 -4 2
-12 -1 -30 -7 -40z m54 -10 c-3 -10 -9 -31 -12 -46 -6 -28 -6 -28 -21 -6 -9
13 -11 24 -5 28 5 3 12 14 16 24 3 9 11 17 18 17 7 0 8 -7 4 -17z m-65 -23 c0
-5 -5 -10 -11 -10 -5 0 -7 5 -4 10 3 6 8 10 11 10 2 0 4 -4 4 -10z m1045 -287
c-22 -15 -75 -18 -75 -3 0 10 20 14 53 12 9 -1 17 3 17 9 0 5 5 7 12 3 7 -5 5
-11 -7 -21z m491 -203 c8 -36 17 -130 19 -209 5 -128 4 -142 -10 -131 -13 11
-15 8 -15 -15 0 -16 -2 -26 -5 -23 -3 3 -7 101 -10 219 -2 118 -7 228 -10 244
-5 29 -5 29 6 5 6 -14 17 -54 25 -90z m-616 50 c0 -5 -9 -10 -21 -10 -11 0
-17 5 -14 10 3 6 13 10 21 10 8 0 14 -4 14 -10z m-381 -26 c-6 -8 -18 -14 -25
-14 -11 0 -10 5 4 18 19 21 39 18 21 -4z m676 -41 c4 -16 11 -46 17 -68 15
-58 13 -96 -6 -107 -9 -5 -16 -15 -16 -22 0 -32 -24 -45 -67 -37 -24 5 -46 4
-51 -1 -26 -26 -154 87 -173 154 -7 24 -17 49 -22 56 -7 9 -3 12 16 12 14 0
29 5 32 10 3 6 30 10 58 11 29 0 75 4 102 9 95 14 104 13 110 -17z m-670 -38
c0 -11 6 -24 13 -28 20 -13 14 -53 -10 -70 -13 -8 -41 -32 -64 -53 -23 -22
-73 -69 -112 -106 -77 -73 -95 -79 -159 -56 -23 8 -35 20 -39 38 -3 14 -9 34
-13 45 -12 33 19 115 63 164 25 27 53 39 109 46 23 3 74 14 112 25 83 22 100
22 100 -5z m-50 -290 c0 -32 -3 -35 -28 -35 -38 0 -47 28 -18 52 34 27 46 22
46 -17z m85 -46 c-12 -8 -11 -9 5 -5 37 10 114 9 127 -1 16 -13 68 -14 68 -2
0 5 5 9 11 9 5 0 8 -4 4 -9 -3 -5 4 -13 16 -16 28 -9 15 -19 -29 -21 -20 -1
-73 -6 -116 -12 -83 -11 -118 -4 -143 28 -18 22 -16 28 15 33 55 8 59 8 42 -4z
m1127 -71 c-3 -8 -6 -5 -6 6 -1 11 2 17 5 13 3 -3 4 -12 1 -19z m13 -63 c0
-13 5 -36 10 -51 7 -18 7 -30 0 -40 -8 -9 -8 -19 1 -36 8 -14 14 -72 15 -144
3 -131 16 -243 40 -351 24 -104 27 -133 15 -133 -15 0 -57 96 -71 165 -7 33
-15 65 -19 70 -21 28 -20 472 0 460 10 -7 12 8 2 18 -11 12 -15 79 -3 72 5 -3
10 -17 10 -30z m-965 -4 c8 12 56 11 75 -1 9 -6 17 -5 22 3 6 9 12 9 26 0 14
-8 22 -9 30 -1 16 16 42 -8 42 -37 0 -27 -25 -52 -35 -35 -5 8 -12 7 -23 -3
-10 -9 -39 -18 -67 -22 -27 -3 -67 -11 -87 -17 -28 -8 -44 -8 -67 1 -16 7 -50
13 -76 13 -33 0 -52 5 -66 19 -22 22 -25 44 -5 36 9 -3 16 2 19 15 5 16 11 19
31 14 14 -3 27 -2 31 4 3 5 21 9 40 8 19 -1 38 1 41 4 3 4 19 2 35 -2 17 -5
31 -5 34 1z m450 -28 c-3 -16 -15 -41 -26 -58 -19 -30 -19 -30 -19 -5 0 24 33
90 46 90 3 0 3 -12 -1 -27z m-840 -7 c16 -3 37 -15 46 -27 11 -15 21 -19 30
-14 12 8 12 6 0 -8 -12 -15 -11 -17 4 -17 13 0 16 -6 11 -24 -3 -14 -1 -28 5
-31 6 -4 8 -13 5 -21 -3 -8 -2 -14 2 -14 4 0 18 -22 31 -49 27 -57 50 -81 106
-109 42 -21 37 -22 193 7 50 10 92 -5 92 -31 0 -26 18 -22 23 5 2 12 5 3 6
-20 0 -24 6 -43 11 -43 6 0 5 -8 -2 -20 -7 -11 -22 -20 -33 -20 -12 0 -27 -6
-33 -12 -9 -9 -49 -13 -120 -14 -120 -2 -156 10 -206 67 -31 35 -116 155 -116
165 0 3 -19 38 -42 77 -24 40 -47 81 -52 92 -13 27 -13 73 -1 69 6 -2 23 -6
40 -8z m382 -131 c8 -24 -1 -28 -46 -20 -49 8 -53 22 -8 28 17 2 36 5 40 5 4
1 10 -5 14 -13z m58 -10 c-21 -17 -37 -15 -43 3 -2 8 8 12 30 12 31 -1 32 -1
13 -15z m321 -12 c-10 -10 -19 5 -10 18 6 11 8 11 12 0 2 -7 1 -15 -2 -18z
m-332 -35 c-7 -10 -93 -9 -119 2 -13 6 3 8 52 8 40 -1 70 -5 67 -10z m222
-149 c-14 -21 -26 -43 -26 -49 0 -5 -9 -10 -20 -10 -17 0 -20 7 -20 39 0 22 4
41 8 43 4 2 21 20 37 42 l29 39 9 -33 c7 -27 4 -39 -17 -71z m-896 -341 c0
-30 -3 -36 -16 -31 -12 4 -15 -1 -13 -28 2 -19 2 -54 0 -79 l-2 -45 -15 34
c-12 29 -44 160 -44 184 0 18 19 4 30 -23 17 -40 34 -33 38 15 4 49 22 27 22
-27z m-100 -57 c12 -40 20 -88 18 -113 -3 -39 -6 -33 -30 68 -31 124 -32 128
-19 119 5 -3 19 -36 31 -74z m1645 11 c10 -31 33 -86 51 -123 46 -94 51 -115
25 -129 -12 -6 -21 -18 -21 -26 0 -8 -4 -12 -10 -9 -5 3 -10 0 -10 -9 0 -8 4
-16 10 -18 6 -2 6 -8 0 -18 -8 -13 -10 -12 -10 4 0 12 -5 16 -16 12 -8 -3 -13
-2 -10 3 3 5 -1 11 -9 15 -17 6 -20 32 -5 38 5 2 -4 40 -20 85 -34 98 -46 178
-31 215 15 40 36 26 56 -40z m-1980 -78 c0 -81 -7 -105 -20 -65 -9 30 -35 14
-35 -22 0 -27 -2 -29 -14 -17 -7 8 -17 32 -20 53 -6 32 -4 37 13 37 11 0 22
-8 24 -17 4 -16 5 -16 6 -1 0 9 -3 19 -8 23 -6 3 1 28 15 56 14 28 29 48 32
44 4 -4 7 -45 7 -91z m1670 27 c-13 -43 42 -301 65 -301 7 0 40 -61 40 -74 0
-3 -7 -3 -16 1 -13 5 -14 0 -7 -33 9 -45 6 -143 -6 -194 -7 -28 -9 -19 -10 51
-1 58 -6 91 -16 105 -11 14 -14 15 -15 4 0 -13 -1 -13 -10 0 -14 21 -12 33 4
27 10 -4 12 0 9 14 -6 22 -19 25 -27 7 -4 -7 -5 -4 -2 8 3 17 -1 20 -23 18
-14 -2 -18 -1 -8 2 19 6 23 39 6 49 -7 5 -10 56 -8 147 2 152 6 188 21 188 5
0 7 -8 3 -19z m-1524 -64 c-17 -31 -38 -65 -48 -77 -24 -28 -112 -84 -120 -76
-4 3 -1 6 5 6 7 0 12 5 12 10 0 6 24 36 54 66 41 42 56 66 61 96 6 36 8 38 22
21 8 -10 12 -12 8 -6 -4 9 -1 11 9 7 11 -4 16 0 17 12 0 11 3 14 5 8 3 -7 -9
-37 -25 -67z m1642 -69 c-2 -5 1 -8 6 -8 6 0 11 -9 11 -20 0 -11 4 -20 9 -20
5 0 12 -12 16 -27 3 -16 12 -35 20 -43 7 -8 16 -26 20 -40 10 -31 54 -90 67
-90 5 0 22 -10 36 -21 26 -21 26 -21 4 -14 -47 14 -5 -31 73 -80 51 -32 73
-51 67 -57 -7 -7 -42 8 -104 45 -125 75 -193 151 -229 254 -11 33 -15 61 -10
67 10 13 11 76 1 76 -4 0 -4 15 -1 33 l5 32 7 -40 c4 -22 5 -43 2 -47z m-413
-8 c0 -5 -5 -10 -11 -10 -5 0 -7 5 -4 10 3 6 8 10 11 10 2 0 4 -4 4 -10z m41
-67 c1 -10 1 -38 0 -63 -3 -82 16 -78 24 4 5 60 10 75 19 67 7 -6 15 -8 18 -5
8 7 19 -118 17 -186 -4 -132 24 -236 76 -283 11 -9 42 -29 68 -43 27 -14 47
-28 44 -30 -3 -3 -19 2 -36 10 -16 9 -37 16 -45 16 -33 0 -84 61 -111 130 -24
62 -45 90 -45 59 0 -23 -24 -1 -35 32 -27 77 -30 309 -4 309 5 0 10 -8 10 -17z
m-451 -29 c0 -2 -7 -4 -15 -4 -8 0 -15 4 -15 10 0 5 7 7 15 4 8 -4 15 -8 15
-10z m547 -86 c-3 -8 -6 -5 -6 6 -1 11 2 17 5 13 3 -3 4 -12 1 -19z m-1209 -7
c-34 -45 -116 -116 -136 -118 -20 -3 -14 8 37 65 43 47 68 67 86 68 22 2 24 0
13 -15z m1782 -71 c11 -22 25 -40 30 -40 5 0 22 -19 39 -42 16 -24 44 -58 63
-77 24 -25 27 -31 11 -22 -21 10 -23 9 -23 -10 0 -18 -2 -19 -15 -9 -8 7 -15
17 -15 22 0 12 -70 121 -83 129 -7 5 -36 71 -37 87 -1 12 13 -5 30 -38z
m-2069 -171 c-30 -25 -131 -61 -149 -54 -22 8 -7 19 76 50 40 16 76 33 79 39
4 6 8 5 11 -4 3 -7 -5 -21 -17 -31z m1855 -61 c60 -40 83 -65 49 -52 -8 4 -15
10 -15 15 0 5 -7 9 -15 9 -20 0 -95 47 -95 60 0 16 8 12 76 -32z m239 32 c3
-5 1 -10 -4 -10 -6 0 -11 5 -11 10 0 6 2 10 4 10 3 0 8 -4 11 -10z m133 -73
c24 -57 27 -77 12 -77 -5 0 -10 8 -10 18 0 10 -9 35 -20 57 -21 42 -24 55 -12
55 4 0 17 -24 30 -53z m-110 31 c25 3 28 0 30 -27 1 -17 0 -31 -4 -31 -9 0
-64 58 -63 67 0 4 3 3 5 -3 2 -6 17 -9 32 -6z m-2228 -103 c0 -25 -10 -40 -50
-75 -28 -24 -54 -47 -59 -50 -5 -3 -12 -16 -16 -29 -7 -23 -6 -23 26 7 18 17
35 29 37 27 6 -5 -25 -35 -77 -75 -42 -32 -43 -33 -36 -9 28 94 124 239 156
236 14 -1 19 -9 19 -32z m1710 -20 c11 -13 10 -14 -4 -9 -9 3 -16 10 -16 15 0
13 6 11 20 -6z m49 -19 c10 -12 8 -13 -8 -9 -12 3 -18 9 -15 14 7 12 10 11 23
-5z m-1356 -26 c-3 -11 -9 -20 -15 -20 -5 0 -4 9 2 20 6 11 12 20 14 20 2 0 2
-9 -1 -20z m87 -43 c-34 -77 -55 -248 -37 -303 5 -14 3 -21 -6 -21 -10 0 -14
18 -16 61 -2 81 -21 178 -38 195 -18 18 -13 55 9 59 12 2 15 -2 12 -15 -3 -11
4 -30 15 -44 16 -18 20 -20 21 -8 0 21 49 133 56 127 2 -3 -5 -25 -16 -51z
m1355 43 c17 -7 16 -9 -10 -9 -16 0 -37 4 -45 9 -12 8 -10 10 10 9 14 0 34 -4
45 -9z m58 -27 c-7 -2 -19 -2 -25 0 -7 3 -2 5 12 5 14 0 19 -2 13 -5z m94 -9
c-3 -3 -12 -4 -19 -1 -8 3 -5 6 6 6 11 1 17 -2 13 -5z m143 -13 c0 -5 -7 -11
-15 -15 -15 -5 -20 5 -8 17 9 10 23 9 23 -2z m-188 -33 c-7 -7 -23 -7 -49 -1
l-38 10 49 1 c33 0 45 -3 38 -10z m68 -8 c0 -11 -4 -20 -8 -20 -4 0 -8 9 -8
20 0 11 4 20 8 20 4 0 8 -9 8 -20z m65 10 c4 -6 1 -18 -6 -26 -11 -13 -8 -19
17 -39 30 -26 83 -45 122 -45 44 0 21 -17 -24 -18 -51 -1 -59 -5 -49 -22 4 -6
20 -8 40 -4 18 3 47 3 64 -1 l32 -7 -26 -19 c-22 -18 -31 -19 -81 -10 -68 13
-221 101 -174 101 6 0 20 -5 32 -11 27 -15 31 -7 13 27 -20 38 -19 61 3 73 22
13 29 13 37 1z m-1579 -47 c-8 -15 -15 -22 -16 -15 0 14 22 53 28 47 2 -2 -3
-16 -12 -32z m-440 -88 c5 -22 8 -25 11 -12 4 14 8 16 19 6 21 -17 18 3 -6 48
-34 63 -22 103 12 42 10 -17 22 -27 28 -24 5 3 10 0 10 -8 0 -7 14 -27 31 -45
18 -18 28 -36 23 -43 -4 -7 -3 -9 3 -6 10 7 18 -6 52 -87 25 -59 25 -56 2 -56
-10 0 -32 15 -48 33 -28 30 -43 39 -70 40 -7 0 -19 15 -28 34 -22 45 -35 42
-31 -8 6 -54 -7 -39 -33 38 -21 62 -28 143 -13 157 6 7 14 -16 38 -109z m241
42 c6 1 8 -9 5 -23 -3 -20 0 -26 17 -31 22 -6 29 -23 10 -23 -8 0 -8 -4 -2
-12 19 -25 23 -48 8 -48 -20 0 -63 98 -69 161 l-6 54 14 -40 c7 -22 18 -39 23
-38z m1303 29 c0 -2 3 -11 6 -20 5 -13 -1 -16 -25 -16 -33 0 -39 8 -19 28 11
11 38 17 38 8z m-527 -139 c22 -15 25 -22 16 -33 -11 -14 -2 -19 24 -15 12 2
32 -21 34 -39 1 -8 4 -25 7 -37 4 -18 2 -21 -12 -14 -9 5 -29 14 -44 21 -15 7
-25 17 -22 22 3 4 1 8 -5 8 -5 0 -22 16 -37 35 -19 26 -25 41 -20 60 7 27 9
27 59 -8z m-593 -89 c0 -18 -2 -20 -9 -8 -6 8 -7 18 -5 22 9 14 14 9 14 -14z
m1590 -75 l25 -14 -29 6 c-16 3 -39 13 -50 22 -21 15 -21 15 4 8 14 -4 36 -14
50 -22z m-1704 -5 c25 -30 64 -102 64 -119 0 -8 -9 -3 -19 11 -11 14 -38 45
-60 70 -22 25 -41 48 -41 53 0 16 38 6 56 -15z"/>
<path d="M2881 524 c0 -11 3 -14 6 -6 3 7 2 16 -1 19 -3 4 -6 -2 -5 -13z"/>
<path d="M2054 1227 c-3 -9 -1 -25 6 -36 9 -17 15 -19 30 -11 20 11 28 50 11
50 -5 0 -16 3 -25 6 -9 4 -18 0 -22 -9z"/>
</g>
</svg>
